<svg width="34" height="34" viewBox="0 0 34 34" fill="none" xmlns="http://www.w3.org/2000/svg">
<g clip-path="url(#clip0_1_329)">
<path d="M29.7204 2.17798H4.38138C2.25282 2.18041 0.52788 3.90534 0.525452 6.03391V28.0678C0.52788 30.1964 2.25282 31.9213 4.38138 31.9237H29.7204C31.8489 31.9213 33.5739 30.1964 33.5763 28.0678V6.03391C33.5739 3.90534 31.8489 2.18041 29.7204 2.17798ZM32.4746 28.0678C32.4728 29.5882 31.2407 30.8202 29.7204 30.822H4.38138C2.86102 30.8202 1.62897 29.5882 1.62715 28.0678V6.03391C1.62897 4.51354 2.86102 3.28149 4.38138 3.27967H29.7204C31.2407 3.28149 32.4728 4.51354 32.4746 6.03391V28.0678Z" fill="#D80027"/>
<path d="M29.7204 6.58423H4.38142C3.46875 6.58423 2.72888 7.3241 2.72888 8.23677V28.0673C2.72888 28.98 3.46875 29.7198 4.38142 29.7198H29.7204C30.6331 29.7198 31.3729 28.98 31.3729 28.0673V8.23677C31.3729 7.3241 30.6331 6.58423 29.7204 6.58423ZM17.0509 17.5263L11.0516 14.2961L17.0509 11.0659L23.0502 14.2961L17.0509 17.5263ZM23.6611 15.2182V21.6775L17.6018 24.9418V18.4825L23.6611 15.2182ZM16.5001 18.4825V24.9418L10.4407 21.6775V15.2182L16.5001 18.4825ZM3.83058 8.23677C3.83058 7.93255 4.0772 7.68592 4.38142 7.68592H16.5001V10.1097L9.6288 13.8113C9.62164 13.8152 9.61337 13.8169 9.60621 13.8213C9.43964 13.9213 9.33812 14.1018 9.33905 14.2961V18.9133L3.83058 21.6675V8.23677ZM30.2713 28.0673C30.2713 28.3715 30.0246 28.6181 29.7204 28.6181H4.38142C4.0772 28.6181 3.83058 28.3715 3.83058 28.0673V22.8992L9.33905 20.145V22.008C9.33916 22.2105 9.45043 22.3967 9.6288 22.4927L16.7898 26.3486C16.9528 26.4364 17.149 26.4364 17.312 26.3486L24.473 22.4927C24.6514 22.3967 24.7627 22.2105 24.7628 22.008V20.145L30.2713 22.8992V28.0673ZM30.2713 21.6675L24.7628 18.9133V14.2961C24.7627 14.1023 24.6608 13.9229 24.4945 13.8235C24.4874 13.8191 24.4791 13.8174 24.4719 13.8136L17.6018 10.1097V7.68592H29.7204C30.0246 7.68592 30.2713 7.93255 30.2713 8.23677V21.6675Z" fill="#D80027"/>
<path d="M3.83051 5.4828C4.13474 5.4828 4.38136 5.23618 4.38136 4.93195C4.38136 4.62773 4.13474 4.3811 3.83051 4.3811C3.52629 4.3811 3.27966 4.62773 3.27966 4.93195C3.27966 5.23618 3.52629 5.4828 3.83051 5.4828Z" fill="#D80027"/>
<path d="M6.03388 5.4828C6.3381 5.4828 6.58473 5.23618 6.58473 4.93195C6.58473 4.62773 6.3381 4.3811 6.03388 4.3811C5.72966 4.3811 5.48303 4.62773 5.48303 4.93195C5.48303 5.23618 5.72966 5.4828 6.03388 5.4828Z" fill="#D80027"/>
<path d="M8.23731 5.4828C8.54153 5.4828 8.78815 5.23618 8.78815 4.93195C8.78815 4.62773 8.54153 4.3811 8.23731 4.3811C7.93308 4.3811 7.68646 4.62773 7.68646 4.93195C7.68646 5.23618 7.93308 5.4828 8.23731 5.4828Z" fill="#D80027"/>
<path d="M22.0085 5.4828H29.7204C30.0246 5.4828 30.2712 5.23618 30.2712 4.93195C30.2712 4.62773 30.0246 4.3811 29.7204 4.3811H22.0085C21.7043 4.3811 21.4576 4.62773 21.4576 4.93195C21.4576 5.23618 21.7043 5.4828 22.0085 5.4828Z" fill="#D80027"/>
</g>
<defs>
<clipPath id="clip0_1_329">
<rect width="33.0508" height="33.0508" fill="white" transform="translate(0.525452 0.525391)"/>
</clipPath>
</defs>
</svg>
