<svg width="62" height="62" viewBox="0 0 62 62" fill="none" xmlns="http://www.w3.org/2000/svg">
<g filter="url(#filter0_d_1_1295)">
<circle cx="31.0007" cy="27" r="17" fill="black"/>
</g>
<g clip-path="url(#clip0_1_1295)">
<path d="M35.9979 31.9998L36.0007 31.9993V27.9651C36.0007 25.9915 35.5758 24.4712 33.2686 24.4712C32.1594 24.4712 31.4151 25.0799 31.1112 25.6569H31.0791V24.6554H28.8915V31.9993H31.1694V28.3629C31.1694 27.4054 31.3509 26.4796 32.5366 26.4796C33.7049 26.4796 33.7223 27.5723 33.7223 28.4243V31.9998H35.9979Z" fill="white"/>
<path d="M25.1823 24.6562H27.4629V32.0001H25.1823V24.6562Z" fill="white"/>
<path d="M26.3216 21C25.5924 21 25.0007 21.5917 25.0007 22.3209C25.0007 23.0501 25.5924 23.6542 26.3216 23.6542C27.0509 23.6542 27.6426 23.0501 27.6426 22.3209C27.6421 21.5917 27.0504 21 26.3216 21V21Z" fill="white"/>
</g>
<defs>
<filter id="filter0_d_1_1295" x="0.000732422" y="0" width="62" height="62" filterUnits="userSpaceOnUse" color-interpolation-filters="sRGB">
<feFlood flood-opacity="0" result="BackgroundImageFix"/>
<feColorMatrix in="SourceAlpha" type="matrix" values="0 0 0 0 0 0 0 0 0 0 0 0 0 0 0 0 0 0 127 0" result="hardAlpha"/>
<feOffset dy="4"/>
<feGaussianBlur stdDeviation="7"/>
<feColorMatrix type="matrix" values="0 0 0 0 0 0 0 0 0 0 0 0 0 0 0 0 0 0 0.15 0"/>
<feBlend mode="normal" in2="BackgroundImageFix" result="effect1_dropShadow_1_1295"/>
<feBlend mode="normal" in="SourceGraphic" in2="effect1_dropShadow_1_1295" result="shape"/>
</filter>
<clipPath id="clip0_1_1295">
<rect width="11" height="11" fill="white" transform="translate(25.0007 21)"/>
</clipPath>
</defs>
</svg>
