<svg width="33" height="33" viewBox="0 0 33 33" fill="none" xmlns="http://www.w3.org/2000/svg">
<g clip-path="url(#clip0_1_273)">
<path d="M3.18792 13.3045C3.32945 13.3053 3.46549 13.2498 3.56598 13.1501L5.69593 11.0202C5.90473 10.8114 5.90473 10.4728 5.69593 10.264C5.48713 10.0552 5.1486 10.0552 4.9398 10.264L2.80985 12.394C2.70905 12.4939 2.65234 12.63 2.65234 12.772C2.65234 12.914 2.70905 13.0501 2.80985 13.1501C2.91034 13.2498 3.04638 13.3053 3.18792 13.3045Z" fill="#D80027"/>
<path d="M3.18792 16.4994C3.32945 16.5002 3.46549 16.4447 3.56598 16.345L8.89084 11.0202C9.09964 10.8114 9.09964 10.4728 8.89084 10.264C8.68204 10.0552 8.34351 10.0552 8.13471 10.264L2.80985 15.5889C2.70905 15.6889 2.65234 15.825 2.65234 15.9669C2.65234 16.1089 2.70905 16.245 2.80985 16.345C2.91034 16.4447 3.04638 16.5002 3.18792 16.4994Z" fill="#D80027"/>
<path d="M30.8771 0.525391H17.0325C16.1503 0.525391 15.4351 1.2406 15.4351 2.12285V7.98019H3.18788C1.71746 7.98019 0.525452 9.1722 0.525452 10.6426V24.4873C0.525452 25.9577 1.71746 27.1497 3.18788 27.1497H9.04523V29.2796H7.44777C6.56552 29.2796 5.85031 29.9948 5.85031 30.8771C5.85031 31.7593 6.56552 32.4745 7.44777 32.4745H30.8771C31.7594 32.4745 32.4746 31.7593 32.4746 30.8771V2.12285C32.4746 1.2406 31.7594 0.525391 30.8771 0.525391ZM3.18788 9.04516H22.3574C23.2396 9.04516 23.9548 9.76037 23.9548 10.6426V23.4223H1.59042V10.6426C1.59042 9.76037 2.30563 9.04516 3.18788 9.04516ZM1.59042 24.4873H23.9548C23.9548 25.3695 23.2396 26.0847 22.3574 26.0847H3.18788C2.30563 26.0847 1.59042 25.3695 1.59042 24.4873ZM10.1102 27.1497H15.4351V29.2796H10.1102V27.1497ZM17.0325 31.4096H7.44777C7.15368 31.4096 6.91528 31.1712 6.91528 30.8771C6.91528 30.583 7.15368 30.3446 7.44777 30.3446H18.0975C18.3916 30.3446 18.63 30.583 18.63 30.8771C18.63 31.1712 18.3916 31.4096 18.0975 31.4096H17.0325ZM31.4096 30.8771C31.4096 31.1712 31.1712 31.4096 30.8771 31.4096H19.5991C19.7717 30.9214 19.697 30.3798 19.3986 29.9566C19.1003 29.5334 18.6153 29.2811 18.0975 29.2796H16.5V27.1497H22.3574C23.8278 27.1497 25.0198 25.9577 25.0198 24.4873V10.6426C25.0198 9.1722 23.8278 7.98019 22.3574 7.98019H16.5V2.12285C16.5 1.82876 16.7384 1.59036 17.0325 1.59036H30.8771C31.1712 1.59036 31.4096 1.82876 31.4096 2.12285V30.8771Z" fill="#D80027"/>
<path d="M29.2797 3.1875H18.63C18.0418 3.1875 17.565 3.6643 17.565 4.25247V5.31744C17.565 5.90561 18.0418 6.38242 18.63 6.38242H29.2797C29.8679 6.38242 30.3447 5.90561 30.3447 5.31744V4.25247C30.3447 3.6643 29.8679 3.1875 29.2797 3.1875ZM18.63 5.31744V4.25247H29.2797V5.31744H18.63Z" fill="#D80027"/>
<path d="M28.2147 11.1754C29.097 11.1754 29.8122 10.4602 29.8122 9.57793C29.8122 8.69567 29.097 7.98047 28.2147 7.98047C27.3325 7.98047 26.6172 8.69567 26.6172 9.57793C26.6172 10.4602 27.3325 11.1754 28.2147 11.1754ZM28.2147 9.04544C28.5088 9.04544 28.7472 9.28384 28.7472 9.57793C28.7472 9.87201 28.5088 10.1104 28.2147 10.1104C27.9206 10.1104 27.6822 9.87201 27.6822 9.57793C27.6822 9.28384 27.9206 9.04544 28.2147 9.04544Z" fill="#D80027"/>
<path d="M29.8122 13.8374C29.8122 12.9552 29.097 12.24 28.2147 12.24C27.3325 12.24 26.6172 12.9552 26.6172 13.8374C26.6172 14.7197 27.3325 15.4349 28.2147 15.4349C29.097 15.4349 29.8122 14.7197 29.8122 13.8374ZM28.2147 14.3699C27.9206 14.3699 27.6822 14.1315 27.6822 13.8374C27.6822 13.5434 27.9206 13.305 28.2147 13.305C28.5088 13.305 28.7472 13.5434 28.7472 13.8374C28.7472 14.1315 28.5088 14.3699 28.2147 14.3699Z" fill="#D80027"/>
<path d="M21.2924 28.2146C20.9984 28.2146 20.7599 28.453 20.7599 28.7471V29.8121C20.7599 30.1061 20.9984 30.3445 21.2924 30.3445C21.5865 30.3445 21.8249 30.1061 21.8249 29.8121V28.7471C21.8249 28.453 21.5865 28.2146 21.2924 28.2146Z" fill="#D80027"/>
<path d="M23.4223 28.2146C23.1282 28.2146 22.8898 28.453 22.8898 28.7471V29.8121C22.8898 30.1061 23.1282 30.3445 23.4223 30.3445C23.7164 30.3445 23.9548 30.1061 23.9548 29.8121V28.7471C23.9548 28.453 23.7164 28.2146 23.4223 28.2146Z" fill="#D80027"/>
<path d="M25.5523 28.2146C25.2582 28.2146 25.0198 28.453 25.0198 28.7471V29.8121C25.0198 30.1061 25.2582 30.3445 25.5523 30.3445C25.8463 30.3445 26.0847 30.1061 26.0847 29.8121V28.7471C26.0847 28.453 25.8463 28.2146 25.5523 28.2146Z" fill="#D80027"/>
<path d="M27.6823 28.2146C27.3882 28.2146 27.1498 28.453 27.1498 28.7471V29.8121C27.1498 30.1061 27.3882 30.3445 27.6823 30.3445C27.9764 30.3445 28.2148 30.1061 28.2148 29.8121V28.7471C28.2148 28.453 27.9764 28.2146 27.6823 28.2146Z" fill="#D80027"/>
<path d="M29.8122 28.2146C29.5181 28.2146 29.2797 28.453 29.2797 28.7471V29.8121C29.2797 30.1061 29.5181 30.3445 29.8122 30.3445C30.1063 30.3445 30.3447 30.1061 30.3447 29.8121V28.7471C30.3447 28.453 30.1063 28.2146 29.8122 28.2146Z" fill="#D80027"/>
</g>
<defs>
<clipPath id="clip0_1_273">
<rect width="31.9492" height="31.9492" fill="white" transform="translate(0.525452 0.525391)"/>
</clipPath>
</defs>
</svg>
