<svg width="31" height="31" viewBox="0 0 31 31" fill="none" xmlns="http://www.w3.org/2000/svg">
<g clip-path="url(#clip0_1_254)">
<path d="M21.7441 0.627197H9.25587C8.05216 0.627197 7.07204 1.60732 7.07204 2.81103V28.1886C7.07204 29.3928 8.05216 30.373 9.25587 30.373H21.7436C22.9478 30.373 23.928 29.3928 23.928 28.1891V2.81103C23.928 1.60732 22.9478 0.627197 21.7441 0.627197ZM8.06356 4.5933H22.9364V23.4323H8.06356V4.5933ZM9.25587 1.61872H21.7436C22.4015 1.61872 22.9364 2.15365 22.9364 2.81103V3.60177H8.06356V2.81103C8.06356 2.15365 8.59849 1.61872 9.25587 1.61872ZM21.7441 29.3814H9.25587C8.59849 29.3814 8.06356 28.8465 8.06356 28.1891V24.4238H22.9364V28.1891C22.9364 28.8465 22.4015 29.3814 21.7441 29.3814Z" fill="#D80027"/>
<path d="M15.5 24.9202C14.4064 24.9202 13.517 25.8096 13.517 26.9032C13.517 27.9969 14.4064 28.8863 15.5 28.8863C16.5937 28.8863 17.4831 27.9969 17.4831 26.9032C17.4831 25.8096 16.5937 24.9202 15.5 24.9202ZM15.5 27.8947C14.9532 27.8947 14.5085 27.45 14.5085 26.9032C14.5085 26.3564 14.9532 25.9117 15.5 25.9117C16.0469 25.9117 16.4916 26.3564 16.4916 26.9032C16.4916 27.45 16.0469 27.8947 15.5 27.8947Z" fill="#D80027"/>
<path d="M13.517 3.10505H15.5C15.7742 3.10505 15.9958 2.88344 15.9958 2.60929C15.9958 2.33513 15.7742 2.11353 15.5 2.11353H13.517C13.2428 2.11353 13.0212 2.33513 13.0212 2.60929C13.0212 2.88344 13.2428 3.10505 13.517 3.10505Z" fill="#D80027"/>
<path d="M16.9873 3.10505H17.4831C17.7572 3.10505 17.9788 2.88344 17.9788 2.60929C17.9788 2.33513 17.7572 2.11353 17.4831 2.11353H16.9873C16.7131 2.11353 16.4915 2.33513 16.4915 2.60929C16.4915 2.88344 16.7131 3.10505 16.9873 3.10505Z" fill="#D80027"/>
<path d="M28.6932 2.89172C28.4993 2.69788 28.186 2.69788 27.9922 2.89172C27.7983 3.08556 27.7983 3.39889 27.9922 3.59273C29.8444 5.4449 29.8444 8.45864 27.9922 10.3113C27.7983 10.5051 27.7983 10.8185 27.9922 11.0123C28.0889 11.109 28.2158 11.1576 28.3427 11.1576C28.4696 11.1576 28.5965 11.109 28.6932 11.0123C30.9321 8.77395 30.9321 5.13058 28.6932 2.89172Z" fill="#D80027"/>
<path d="M26.6056 4.02063C26.4118 3.82678 26.0984 3.82678 25.9046 4.02063C25.7108 4.21447 25.7108 4.52779 25.9046 4.72164C26.5179 5.33489 26.8555 6.15191 26.8555 7.02148C26.8555 7.89105 26.5179 8.70757 25.9046 9.32083C25.7108 9.51467 25.7108 9.82799 25.9046 10.0218C26.0013 10.1185 26.1282 10.1671 26.2551 10.1671C26.382 10.1671 26.5089 10.1185 26.6056 10.0218C27.4063 9.22167 27.847 8.15578 27.847 7.02148C27.847 5.88717 27.4068 4.82079 26.6056 4.02063Z" fill="#D80027"/>
<path d="M3.0078 3.59273C3.20164 3.39889 3.20164 3.08556 3.0078 2.89172C2.81395 2.69788 2.50063 2.69788 2.30679 2.89172C0.0679237 5.13058 0.0679237 8.77345 2.30679 11.0123C2.40346 11.109 2.53038 11.1576 2.65729 11.1576C2.78421 11.1576 2.91112 11.109 3.0078 11.0123C3.20164 10.8185 3.20164 10.5051 3.0078 10.3113C1.15513 8.45914 1.15513 5.44539 3.0078 3.59273Z" fill="#D80027"/>
<path d="M5.09544 3.88391C4.9016 3.69006 4.58828 3.69006 4.39444 3.88391C3.59378 4.68407 3.15305 5.74996 3.15305 6.88426C3.15305 8.01857 3.59378 9.08446 4.39444 9.88512C4.49111 9.98179 4.61802 10.0304 4.74494 10.0304C4.87186 10.0304 4.99877 9.98179 5.09544 9.88512C5.28929 9.69127 5.28929 9.37795 5.09544 9.18411C4.48219 8.57085 4.14457 7.75383 4.14457 6.88426C4.14457 6.0147 4.48169 5.19817 5.09544 4.58492C5.28879 4.39157 5.28879 4.07775 5.09544 3.88391Z" fill="#D80027"/>
</g>
<defs>
<clipPath id="clip0_1_254">
<rect width="29.7458" height="29.7458" fill="white" transform="translate(0.627121 0.627197)"/>
</clipPath>
</defs>
</svg>
