<svg width="32" height="32" viewBox="0 0 32 32" fill="none" xmlns="http://www.w3.org/2000/svg">
<g clip-path="url(#clip0_1_315)">
<path d="M18.5671 23.9064C16.8811 24.469 15.0213 24.4689 13.3305 23.9062C12.8567 23.7484 12.3452 24.0047 12.1876 24.4782C12.03 24.9518 12.2861 25.4635 12.7597 25.6211C13.7894 25.9638 14.8703 26.1351 15.9509 26.1351C17.0316 26.1351 18.1119 25.9637 19.1392 25.6209C19.6126 25.4629 19.8684 24.9511 19.7103 24.4776C19.5524 24.0042 19.0406 23.7485 18.5671 23.9064Z" fill="#D80027"/>
<path d="M26.4768 6.53153C26.0921 3.77273 23.7232 1.59522 20.7892 1.59522H19.7568V1.53093C19.7568 1.03183 19.3522 0.627197 18.8531 0.627197H13.0451C12.546 0.627197 12.1414 1.03183 12.1414 1.53093V1.59516H11.1091C8.19966 1.59516 5.82747 3.74231 5.42405 6.53087C3.72997 6.9164 2.46143 8.43377 2.46143 10.2429V17.9869C2.46143 20.4635 4.47874 21.4728 5.39507 21.6906C5.80886 27.266 10.4904 31.4747 15.9491 31.4747C21.5159 31.4747 26.0925 27.1545 26.5027 21.6909C28.878 21.127 29.4368 18.972 29.4368 17.987V10.2429C29.4369 8.43474 28.1695 6.91797 26.4768 6.53153ZM19.7568 3.40263H20.7891C23.3462 3.40263 24.4025 5.49332 24.6221 6.4352H19.7568V3.40263ZM13.9489 2.43467H17.9494V6.4352H13.9489V2.43467ZM11.1091 3.40263H12.1414V6.4352H7.27984C7.866 3.97969 10.0905 3.40263 11.1091 3.40263ZM15.9491 29.6672C11.4886 29.6672 7.67573 26.2881 7.2188 21.7946H11.6754C12.7844 21.7946 13.8695 21.3452 14.6524 20.5617C14.6571 20.5571 14.6617 20.5524 14.6662 20.5476C15.0062 20.215 15.4727 20.0247 15.9491 20.0247C16.4257 20.0247 16.8921 20.2151 17.2321 20.5477C17.2366 20.5524 17.2412 20.5571 17.2459 20.5617C18.0288 21.3452 19.1139 21.7946 20.2229 21.7946H24.6791C24.2253 26.2109 20.4833 29.6672 15.9491 29.6672ZM27.6294 17.987C27.6294 19.1054 26.7178 19.9872 25.6291 19.9872H20.2229C19.5968 19.9872 18.9843 19.7365 18.5391 19.2986C18.5342 19.2935 18.5293 19.2885 18.5243 19.2834C17.8467 18.6058 16.9082 18.2172 15.9492 18.2172C14.9903 18.2172 14.0517 18.6058 13.3741 19.2834C13.3691 19.2884 13.3641 19.2935 13.3593 19.2986C12.914 19.7365 12.3015 19.9872 11.6754 19.9872H6.2691C5.18389 19.9872 4.26883 19.1092 4.26883 17.987V10.2429C4.26883 9.14001 5.16618 8.24272 6.2691 8.24272H25.6291C26.732 8.24272 27.6293 9.14007 27.6293 10.2429V17.987H27.6294Z" fill="#D80027"/>
</g>
<defs>
<clipPath id="clip0_1_315">
<rect width="30.8475" height="30.8475" fill="white" transform="translate(0.525391 0.627197)"/>
</clipPath>
</defs>
</svg>
